<?xml version="1.0" encoding="UTF-8" standalone="no"?>
<!-- Created with Inkscape (http://www.inkscape.org/) -->

<svg
   xmlns:dc="http://purl.org/dc/elements/1.1/"
   xmlns:cc="http://creativecommons.org/ns#"
   xmlns:rdf="http://www.w3.org/1999/02/22-rdf-syntax-ns#"
   xmlns:svg="http://www.w3.org/2000/svg"
   xmlns="http://www.w3.org/2000/svg"
   xmlns:sodipodi="http://sodipodi.sourceforge.net/DTD/sodipodi-0.dtd"
   xmlns:inkscape="http://www.inkscape.org/namespaces/inkscape"
   width="6.5"
   height="15.5"
   viewBox="0 0 6.4999996 15.499999"
   id="svg4143"
   version="1.1"
   inkscape:version="0.91 r13725"
   sodipodi:docname="chart.svg">
  <defs
     id="defs4145" />
  <sodipodi:namedview
     id="base"
     pagecolor="#ffffff"
     bordercolor="#666666"
     borderopacity="1.0"
     inkscape:pageopacity="0.0"
     inkscape:pageshadow="2"
     inkscape:zoom="33.287052"
     inkscape:cx="5.8803423"
     inkscape:cy="7.9779075"
     inkscape:document-units="px"
     inkscape:current-layer="layer1"
     showgrid="false"
     inkscape:window-width="1366"
     inkscape:window-height="699"
     inkscape:window-x="0"
     inkscape:window-y="24"
     inkscape:window-maximized="1"
     units="px" />
  <metadata
     id="metadata4148">
    <rdf:RDF>
      <cc:Work
         rdf:about="">
        <dc:format>image/svg+xml</dc:format>
        <dc:type
           rdf:resource="http://purl.org/dc/dcmitype/StillImage" />
        <dc:title></dc:title>
      </cc:Work>
    </rdf:RDF>
  </metadata>
  <g
     inkscape:label="Camada 1"
     inkscape:groupmode="layer"
     id="layer1"
     transform="translate(0,-1036.8622)">
    <path
       inkscape:connector-curvature="0"
       id="path1360-7"
       d="m 1.9560321,1052.0771 c -0.90969,-0.059 -1.45184497,-0.1758 -1.57828197,-0.3405 -0.07803,-0.1015 -0.109311,-0.9794 -0.146047,-4.0679 -0.05332,-4.5055 -0.114309,-4.0775 0.69155301,-4.8543 0.27418096,-0.2642 0.51730896,-0.5373 0.54027596,-0.6069 0.02308,-0.069 0.14695,-0.9748 0.275673,-2.0118 l 0.233932,-1.8855 -0.173895,-0.1145 -0.173899,-0.1147 0.16954,-0.2882 c 0.126151,-0.2146 0.148012,-0.3044 0.08547,-0.3512 -0.04644,-0.034 -0.06331,-0.1141 -0.0378,-0.177 0.0437,-0.1081 0.08805,-0.1164 0.786932,-0.1488 0.407323,-0.019 1.000254,-0.015 1.317657,0.01 l 0.577068,0.042 5.22e-4,0.1891 c 3.62e-4,0.1039 0.04767,0.3027 0.104746,0.4415 0.09625,0.2341 0.09306,0.2616 -0.0466,0.3784 -0.150133,0.1256 -0.149983,0.1308 0.06665,1.9929 0.119321,1.0268 0.251745,1.9441 0.294178,2.0384 0.04252,0.094 0.254237,0.3389 0.470716,0.5436 0.216495,0.2047 0.482719,0.4892 0.591583,0.6322 l 0.197913,0.26 -0.02416,3.9235 c -0.01369,2.3679 -0.05326,3.982 -0.09836,4.0713 -0.109755,0.2183 -0.29231,0.2955 -0.878268,0.3715 -0.675914,0.088 -2.399208,0.1247 -3.247659,0.07 z"
       style="display:inline;fill:#bd252c;fill-opacity:1;stroke-width:0.04231486" />
  </g>
</svg>
